<svg width="40" height="42" viewBox="0 0 40 42" fill="none" xmlns="http://www.w3.org/2000/svg">
<path d="M0 7.96357C0.535831 3.56234 3.11146 0.481885 7.41868 0.544894H27.2902C30.4025 0.544894 33.7362 0.41554 36.318 2.15354C38.2474 3.45235 39.3846 5.42163 39.3846 7.96357V32.0848C39.1249 36.1821 36.2504 38.841 30.8607 39.5035H7.41868C2.79391 38.9856 0.450851 36.404 0 32.0848V7.96357Z" fill="#EAFFFA"/>
<g clip-path="url(#clip0_1_98)">
<path d="M20.6429 12.6428C21.2396 12.6428 21.8119 12.8799 22.2339 13.3018C22.6558 13.7238 22.8929 14.2961 22.8929 14.8928C22.8929 15.4896 22.6558 16.0619 22.2339 16.4838C21.8119 16.9058 21.2396 17.1428 20.6429 17.1428H11.6429M26.1072 25.5C26.7039 25.5 27.2762 25.2629 27.6982 24.841C28.1201 24.419 28.3572 23.8467 28.3572 23.25C28.3572 22.6532 28.1201 22.0809 27.6982 21.659C27.2762 21.237 26.7039 21 26.1072 21H13.5715M20.3215 29.3571C20.9182 29.3571 21.4905 29.1201 21.9124 28.6981C22.3344 28.2761 22.5715 27.7038 22.5715 27.1071C22.5715 26.5104 22.3344 25.9381 21.9124 25.5161C21.4905 25.0942 20.9182 24.8571 20.3215 24.8571H12.9286" stroke="#25826C" stroke-width="1.7" stroke-linecap="round" stroke-linejoin="round"/>
</g>
<defs>
<clipPath id="clip0_1_98">
<rect width="18" height="18" fill="white" transform="translate(11 12)"/>
</clipPath>
</defs>
</svg>
