<svg width="40" height="41" viewBox="0 0 40 41" fill="none" xmlns="http://www.w3.org/2000/svg">
<path d="M0 7.41962C0.535831 3.01839 3.11146 -0.0620607 7.41868 0.000949104H27.2902C30.4025 0.000949104 33.7362 -0.128406 36.318 1.60959C38.2474 2.90841 39.3846 4.87769 39.3846 7.41962V31.5409C39.1249 35.6381 36.2504 38.297 30.8607 38.9595H7.41868C2.79391 38.4416 0.450851 35.8601 0 31.5409V7.41962Z" fill="#EAFFFA"/>
<path fill-rule="evenodd" clip-rule="evenodd" d="M14.6674 14.5842C14.6674 13.3684 15.1503 12.2024 16.0101 11.3427C16.8698 10.483 18.0358 10 19.2516 10C20.4674 10 21.6334 10.483 22.4931 11.3427C23.3528 12.2024 23.8358 13.3684 23.8358 14.5842C23.8358 15.8 23.3528 16.966 22.4931 17.8257C21.6334 18.6854 20.4674 19.1684 19.2516 19.1684C18.0358 19.1684 16.8698 18.6854 16.0101 17.8257C15.1503 16.966 14.6674 15.8 14.6674 14.5842ZM19.2516 11.8337C18.8904 11.8337 18.5327 11.9048 18.199 12.0431C17.8653 12.1813 17.5621 12.3839 17.3067 12.6393C17.0513 12.8947 16.8487 13.1979 16.7104 13.5316C16.5722 13.8653 16.5011 14.223 16.5011 14.5842C16.5011 14.9454 16.5722 15.3031 16.7104 15.6368C16.8487 15.9705 17.0513 16.2737 17.3067 16.5291C17.5621 16.7845 17.8653 16.9871 18.199 17.1254C18.5327 17.2636 18.8904 17.3347 19.2516 17.3347C19.9811 17.3347 20.6807 17.045 21.1965 16.5291C21.7123 16.0133 22.0021 15.3137 22.0021 14.5842C22.0021 13.8547 21.7123 13.1551 21.1965 12.6393C20.6807 12.1235 19.9811 11.8337 19.2516 11.8337ZM13.2123 24.3037C12.9162 24.6796 12.8337 24.9638 12.8337 25.1279C12.8337 25.2361 12.8658 25.3406 13.0216 25.48C13.2023 25.6413 13.5259 25.8192 14.0393 25.9778C15.0662 26.295 16.5662 26.4555 18.354 26.494C18.4744 26.4965 18.5931 26.5227 18.7034 26.5712C18.8137 26.6196 18.9133 26.6892 18.9967 26.7761C19.08 26.8631 19.1454 26.9656 19.1892 27.0778C19.2329 27.19 19.2541 27.3097 19.2516 27.4301C19.2491 27.5505 19.2228 27.6692 19.1744 27.7795C19.126 27.8898 19.0564 27.9894 18.9694 28.0728C18.8825 28.1561 18.78 28.2215 18.6678 28.2653C18.5556 28.309 18.4359 28.3302 18.3155 28.3277C16.4846 28.2883 14.7765 28.1251 13.4984 27.7299C12.8603 27.5319 12.257 27.2559 11.8004 26.8479C11.3181 26.417 11 25.8375 11 25.1279C11 24.4063 11.3282 23.7315 11.7738 23.1668C12.2267 22.5937 12.8529 22.0666 13.5873 21.6173C15.057 20.7225 17.0557 20.0853 19.2516 20.0853C19.6617 20.0853 20.0639 20.1067 20.4581 20.1494C20.7 20.1751 20.9217 20.2958 21.0746 20.4849C21.2274 20.674 21.2989 20.9161 21.2732 21.158C21.2476 21.3998 21.1269 21.6215 20.9378 21.7744C20.7486 21.9272 20.5065 21.9987 20.2647 21.973C19.934 21.937 19.5963 21.919 19.2516 21.919C17.3968 21.919 15.7282 22.4599 14.5427 23.1833C13.9495 23.5445 13.5011 23.9369 13.2123 24.3037ZM28.6153 21.0333C28.4024 20.8204 28.1497 20.6515 27.8716 20.5363C27.5935 20.421 27.2954 20.3617 26.9943 20.3617C26.6933 20.3617 26.3952 20.421 26.117 20.5363C25.8389 20.6515 25.5862 20.8204 25.3733 21.0333L22.2396 24.1661C22.0292 24.3767 21.8928 24.6498 21.8508 24.9445L21.5483 27.0606C21.5278 27.2018 21.5406 27.3457 21.5856 27.4811C21.6306 27.6165 21.7065 27.7395 21.8073 27.8403C21.9082 27.9412 22.0312 28.0171 22.1666 28.0621C22.3019 28.1071 22.4459 28.1198 22.5871 28.0994L24.7031 27.7968C24.9978 27.7549 25.271 27.6185 25.4815 27.4081L28.6144 24.2743C29.0441 23.8445 29.2855 23.2616 29.2855 22.6538C29.2855 22.046 29.045 21.4631 28.6153 21.0333ZM26.6698 22.3297C26.7562 22.2462 26.872 22.2 26.9922 22.201C27.1124 22.2021 27.2274 22.2503 27.3124 22.3353C27.3974 22.4203 27.4456 22.5353 27.4466 22.6554C27.4477 22.7756 27.4015 22.8914 27.318 22.9779L24.2924 26.0035L23.536 26.1117L23.6442 25.3553L26.6698 22.3297Z" fill="#25826C"/>
</svg>
