<svg width="40" height="41" viewBox="0 0 40 41" fill="none" xmlns="http://www.w3.org/2000/svg">
<path d="M0 7.41962C0.535831 3.01839 3.11146 -0.0620607 7.41868 0.000949104H27.2902C30.4025 0.000949104 33.7362 -0.128406 36.318 1.60959C38.2474 2.90841 39.3846 4.87769 39.3846 7.41962V31.5409C39.1249 35.6381 36.2504 38.297 30.8607 38.9595H7.41868C2.79391 38.4416 0.450851 35.8601 0 31.5409V7.41962Z" fill="#EAFFFA"/>
<path d="M28.927 16.99C22.317 16.082 16.617 20.99 17 27.5M14.5 15C14.5 15.5304 14.7107 16.0391 15.0858 16.4142C15.4609 16.7893 15.9696 17 16.5 17C17.0304 17 17.5391 16.7893 17.9142 16.4142C18.2893 16.0391 18.5 15.5304 18.5 15C18.5 14.4696 18.2893 13.9609 17.9142 13.5858C17.5391 13.2107 17.0304 13 16.5 13C15.9696 13 15.4609 13.2107 15.0858 13.5858C14.7107 13.9609 14.5 14.4696 14.5 15Z" stroke="#25826C" stroke-width="1.5" stroke-linecap="round" stroke-linejoin="round"/>
<path d="M11 20.066C13.78 19.681 16.275 21.024 17.624 23.166" stroke="#25826C" stroke-width="1.5" stroke-linecap="round" stroke-linejoin="round"/>
<path d="M11 16.4C11 14.16 11 13.04 11.436 12.184C11.8195 11.4314 12.4314 10.8195 13.184 10.436C14.04 10 15.16 10 17.4 10H22.6C24.84 10 25.96 10 26.816 10.436C27.5686 10.8195 28.1805 11.4314 28.564 12.184C29 13.04 29 14.16 29 16.4V21.6C29 23.84 29 24.96 28.564 25.816C28.1805 26.5686 27.5686 27.1805 26.816 27.564C25.96 28 24.84 28 22.6 28H17.4C15.16 28 14.04 28 13.184 27.564C12.4314 27.1805 11.8195 26.5686 11.436 25.816C11 24.96 11 23.84 11 21.6V16.4Z" stroke="#25826C" stroke-width="1.5" stroke-linecap="round" stroke-linejoin="round"/>
</svg>
