<svg width="40" height="42" viewBox="0 0 40 42" fill="none" xmlns="http://www.w3.org/2000/svg">
<path d="M0 7.96357C0.535831 3.56234 3.11146 0.481885 7.41868 0.544894H27.2902C30.4025 0.544894 33.7362 0.41554 36.318 2.15354C38.2474 3.45235 39.3846 5.42163 39.3846 7.96357V32.0848C39.1249 36.1821 36.2504 38.841 30.8607 39.5035H7.41868C2.79391 38.9856 0.450851 36.404 0 32.0848V7.96357Z" fill="#EAFFFA"/>
<path d="M13 26V11C13 10.7348 13.1054 10.4804 13.2929 10.2929C13.4804 10.1054 13.7348 10 14 10H26C26.2652 10 26.5196 10.1054 26.7071 10.2929C26.8946 10.4804 27 10.7348 27 11V24H15C14.4696 24 13.9609 24.2107 13.5858 24.5858C13.2107 24.9609 13 25.4696 13 26ZM13 26C13 26.5304 13.2107 27.0391 13.5858 27.4142C13.9609 27.7893 14.4696 28 15 28H27M17 10V24M24 24V28" stroke="#25826C" stroke-width="1.7" stroke-linecap="round" stroke-linejoin="round"/>
</svg>
