<svg xmlns="http://www.w3.org/2000/svg" width="29" height="29" viewBox="0 0 29 29" fill="none">
  <circle cx="14.2168" cy="14.417" r="8.6123" stroke="#5E6A86" stroke-width="1.5" stroke-linecap="round"/>
  <path d="M11.3166 14.399L10.4267 15.2889C9.64562 16.07 9.64562 17.3363 10.4267 18.1173L10.5156 18.2063C11.2966 18.9873 12.563 18.9873 13.344 18.2063L14.6286 16.9216C15.0037 16.5466 15.2144 16.0379 15.2144 15.5074L15.2144 13.793M16.9938 14.5564L18.0052 13.5451C18.7862 12.7641 18.7862 11.4977 18.0052 10.7167L17.9162 10.6278C17.1352 9.84671 15.8689 9.84671 15.0878 10.6278L13.8164 11.8992C13.4413 12.2743 13.2306 12.783 13.2306 13.3134L13.2306 14.9795" stroke="#5E6A86" stroke-width="1.5" stroke-linecap="round"/>
</svg>