<svg fill="none" height="16" viewBox="0 0 16 16" width="16" xmlns="http://www.w3.org/2000/svg"><g clip-rule="evenodd" fill="#457eff" fill-rule="evenodd"><path d="m12.994 1.4528c-.204 0-.406.04018-.5945.11824-.1884.07807-.3597.19249-.5039.33673l-9.43175 9.43173-.82381 3.0206 3.02062-.8238 9.43174-9.43172c.1442-.14424.2586-.31548.3367-.50395.0781-.18846.1182-.39046.1182-.59445s-.0401-.40599-.1182-.59445c-.0781-.18847-.1925-.35971-.3367-.50396-.1443-.14424-.3155-.25866-.504-.33673-.1884-.07806-.3904-.11824-.5944-.11824zm-.9312-.69477c.2952-.122289.6116-.18523.9312-.18523.3195 0 .636.062941.9312.18523.2952.122288.5635.30153.7894.52749.226.22596.4052.49421.5275.78945.1223.29523.1852.61165.1852.93121 0 .31955-.0629.63598-.1852.93121s-.3015.56349-.5275.78945l-9.51431 9.51436c-.05415.0541-.12148.0932-.19536.1133l-3.87621 1.0572c-.152334.0415-.31525-.0017-.4269-.1134-.11165-.1116-.154914-.2745-.113369-.4269l1.057149-3.8762c.02015-.0739.05922-.1412.11337-.1953l9.51433-9.51438c.226-.22596.4942-.405202.7895-.52749z"/><path d="m10.501 2.12698c.1562-.15621.4094-.15621.5656 0l2.6854 2.68538c.1562.15621.1562.40947 0 .56568s-.4095.15621-.5657 0l-2.6853-2.68537c-.1563-.15621-.1563-.40948 0-.56569zm-8.67264 8.67262c.15531-.1571.40857-.1586.56568-.0033l2.75369 2.7222c.1571.1553.15856.4086.00325.5657-.1553.1571-.40857.1585-.56567.0032l-2.75369-2.7221c-.15711-.1553-.15856-.4086-.00326-.5657z"/></g></svg>