<svg width="16" height="16" viewBox="0 0 16 16" fill="none" xmlns="http://www.w3.org/2000/svg">
<path d="M4.91795 13.4101C4.81258 13.4101 4.72477 13.3749 4.65452 13.3047C4.58427 13.2344 4.555 13.1466 4.56671 13.0413L4.88283 10.9162H3.14418C3.0271 10.9162 2.93343 10.8811 2.86318 10.8109C2.79294 10.7406 2.75781 10.647 2.75781 10.5299V9.93276C2.75781 9.81568 2.79294 9.72202 2.86318 9.65177C2.93343 9.58152 3.0271 9.5464 3.14418 9.5464H5.09357L5.55019 6.45546H3.60079C3.48371 6.45546 3.39005 6.42034 3.3198 6.35009C3.24955 6.27984 3.21443 6.18618 3.21443 6.0691V5.47198C3.21443 5.3549 3.24955 5.26124 3.3198 5.19099C3.39005 5.12074 3.48371 5.08562 3.60079 5.08562H5.76094L6.07705 2.9606C6.10047 2.86694 6.14145 2.78498 6.19999 2.71473C6.25853 2.63278 6.34634 2.5918 6.46342 2.5918H7.11322C7.21859 2.5918 7.3064 2.62692 7.37665 2.69717C7.4469 2.76742 7.47617 2.85523 7.46446 2.9606L7.14834 5.08562H9.74754L10.0637 2.9606C10.0871 2.86694 10.128 2.78498 10.1866 2.71473C10.2451 2.63278 10.3329 2.5918 10.45 2.5918H11.0998C11.2052 2.5918 11.293 2.62692 11.3633 2.69717C11.4335 2.76742 11.4628 2.85523 11.4511 2.9606L11.1349 5.08562H12.8385C12.9556 5.08562 13.0492 5.12074 13.1195 5.19099C13.2014 5.26124 13.2424 5.3549 13.2424 5.47198V6.0691C13.2424 6.18618 13.2014 6.27984 13.1195 6.35009C13.0492 6.42034 12.9556 6.45546 12.8385 6.45546H10.9418L10.4851 9.5464H12.3819C12.4989 9.5464 12.5926 9.58152 12.6628 9.65177C12.7448 9.72202 12.7858 9.81568 12.7858 9.93276V10.5299C12.7858 10.647 12.7448 10.7406 12.6628 10.8109C12.5926 10.8811 12.4989 10.9162 12.3819 10.9162H10.2744L9.95828 13.0413C9.92316 13.2871 9.78852 13.4101 9.55435 13.4101H8.90455C8.79918 13.4101 8.71137 13.3749 8.64112 13.3047C8.57087 13.2344 8.5416 13.1466 8.55331 13.0413L8.86943 10.9162H6.2878L5.97168 13.0413C5.93656 13.2871 5.80191 13.4101 5.56775 13.4101H4.91795ZM6.49854 9.5464H9.08018L9.53679 6.45546H6.95516L6.49854 9.5464Z" fill="#2762F9"/>
</svg>
