<svg width="16" height="16" viewBox="0 0 16 16" fill="none" xmlns="http://www.w3.org/2000/svg">
<rect x="6.5" y="6.5" width="8" height="8" fill="#9554DC"/>
<path d="M5.5 9C4.80777 9 4.13108 8.79473 3.5555 8.41014C2.97993 8.02556 2.53133 7.47893 2.26642 6.83939C2.00151 6.19985 1.9322 5.49612 2.06725 4.81718C2.2023 4.13825 2.53564 3.51461 3.02513 3.02513C3.51461 2.53564 4.13825 2.2023 4.81718 2.06725C5.49612 1.9322 6.19985 2.00151 6.83939 2.26642C7.47893 2.53133 8.02556 2.97993 8.41014 3.5555C8.79473 4.13108 9 4.80777 9 5.5L5.5 5.5L5.5 9Z" fill="#9554DC"/>
</svg>
