<svg width="17" height="18" viewBox="0 0 17 18" fill="none" xmlns="http://www.w3.org/2000/svg">
<path d="M11.4978 2.00215C10.6439 1.65995 9.71173 1.47168 8.73559 1.47168C4.63269 1.47168 1.30664 4.79773 1.30664 8.90062C1.30664 13.0035 4.63269 16.3296 8.73559 16.3296C10.1075 16.3296 11.3926 15.9577 12.4955 15.3092L15.6002 15.7579L15.297 12.3875C15.8507 11.3478 16.1645 10.1608 16.1645 8.90062C16.1645 8.01172 16.0084 7.15928 15.7221 6.36923" stroke="#96A2BE" stroke-width="1.5"/>
<ellipse cx="14.1666" cy="3.75581" rx="1.99798" ry="2.02632" fill="#457EFF"/>
<path d="M6.6355 6.80398C6.6355 6.38646 6.829 5.98605 7.17343 5.69082C7.51786 5.39559 8.0647 5.21524 8.79254 5.21924C9.52039 5.22324 9.95111 5.39559 10.2955 5.69082C10.64 5.98605 10.8335 6.38646 10.8335 6.80398C10.8528 7.14467 10.7609 7.48242 10.5716 7.76635C10.3823 8.05028 10.1059 8.26502 9.78398 8.37822C9.46206 8.52915 9.18564 8.81547 8.99635 9.19404C8.80707 9.57262 8.71516 10.0229 8.73449 10.4772M8.73449 12.5762V12.5814" stroke="#96A2BE" stroke-width="1.5" stroke-linecap="round" stroke-linejoin="round"/>
</svg>
