<?xml version="1.0" encoding="utf-8"?>
<!-- Generator: Adobe Illustrator 26.0.2, SVG Export Plug-In . SVG Version: 6.00 Build 0)  -->
<svg version="1.1" id="Layer_1" xmlns="http://www.w3.org/2000/svg" xmlns:xlink="http://www.w3.org/1999/xlink" x="0px" y="0px"
	 viewBox="0 0 62.4 62.4" style="enable-background:new 0 0 62.4 62.4;" xml:space="preserve">
<style type="text/css">
	.st0{fill:#457EFF;}
</style>
<path class="st0" d="M31.2,62.4C14,62.4,0,48.5,0,31.2C0,14,14,0,31.2,0c17.2,0,31.2,14,31.2,31.2c0,3.8-0.7,7.6-2.1,11.2
	c-0.4,1.3-1.8,2-3.1,1.6s-2-1.8-1.6-3.1c0-0.1,0.1-0.2,0.1-0.3c5.2-13.5-1.6-28.7-15.1-33.9S11.9,8.3,6.7,21.8s1.6,28.7,15.1,33.9
	c8.2,3.1,17.4,2,24.6-3.1c1.1-0.8,2.7-0.6,3.5,0.5s0.6,2.7-0.5,3.5c0,0-0.1,0.1-0.1,0.1C44,60.5,37.7,62.5,31.2,62.4z"/>
</svg>
