<svg width="51" height="16" viewBox="0 0 51 16" fill="none" xmlns="http://www.w3.org/2000/svg">
<path fill-rule="evenodd" clip-rule="evenodd" d="M36.1758 12.1716C37.3367 12.1716 38.3296 11.3372 38.5295 10.1936L39.2504 6.06933H40.9289L41.227 4.39083H39.5485L39.7053 3.48099C39.7681 3.15679 39.8857 2.92671 40.0583 2.79076C40.2309 2.65481 40.4897 2.58683 40.8348 2.58683C41.1438 2.58683 41.4086 2.36613 41.4644 2.06223L41.6819 0.876953H40.8348C40.0086 0.876953 39.321 1.07565 38.772 1.47306C38.2229 1.87046 37.8647 2.53977 37.6974 3.48099L37.5405 4.39083H36.4738L36.1758 6.06933H37.2425L36.1758 12.1716ZM7.36022 10.6026C7.20622 11.5085 6.42127 12.1713 5.50235 12.1713H0.222656L2.15215 1.19043C3.19957 1.19043 3.99298 2.13629 3.81076 3.16774L2.49727 10.6026H7.36022ZM13.7552 11.9986C13.1852 12.2391 12.5708 12.3594 11.9119 12.3594C11.2322 12.3594 10.6361 12.2077 10.1236 11.9044C9.61119 11.6012 9.21117 11.1907 8.92358 10.673C8.63598 10.1553 8.49219 9.56186 8.49219 8.89255C8.49219 8.23369 8.60984 7.61929 8.84514 7.04933C9.08045 6.47937 9.40987 5.98 9.83342 5.55123C10.257 5.12245 10.7511 4.79041 11.3158 4.5551C11.8806 4.3198 12.4871 4.20215 13.1355 4.20215C13.8258 4.20215 14.4297 4.34856 14.9474 4.64138C15.465 4.93421 15.8703 5.33684 16.1631 5.84928C16.4559 6.36172 16.6023 6.95782 16.6023 7.63759C16.6023 8.3069 16.4821 8.92653 16.2415 9.49649C16.001 10.0665 15.669 10.5658 15.2454 10.9946C14.8219 11.4234 14.3251 11.758 13.7552 11.9986ZM12.1783 10.619C11.7286 10.619 11.3443 10.4622 11.0253 10.1484C10.7064 9.8347 10.5469 9.39024 10.5469 8.81505C10.5469 8.27123 10.6515 7.78232 10.8606 7.34832C11.0698 6.91431 11.3548 6.57181 11.7156 6.32082C12.0764 6.06983 12.4764 5.94434 12.9156 5.94434C13.3653 5.94434 13.7496 6.10121 14.0686 6.41494C14.3876 6.72868 14.547 7.17315 14.547 7.74833C14.547 8.29215 14.4425 8.78106 14.2333 9.21506C14.0241 9.64907 13.7418 9.99157 13.3862 10.2426C13.0306 10.4936 12.628 10.619 12.1783 10.619ZM23.0287 11.9829C22.4482 12.2339 21.8234 12.3594 21.1541 12.3594C20.4638 12.3594 19.8625 12.2208 19.3501 11.9437C18.8376 11.6665 18.4428 11.277 18.1657 10.775C17.8886 10.273 17.75 9.68735 17.75 9.01804C17.75 8.34873 17.8703 7.72125 18.1108 7.13561C18.3513 6.54996 18.6912 6.03752 19.1305 5.59829C19.5697 5.15905 20.0821 4.81655 20.6678 4.57079C21.2534 4.32503 21.8914 4.20215 22.5816 4.20215C23.5855 4.20215 24.3882 4.46883 24.9895 5.00218C25.5909 5.53554 25.8915 6.27283 25.8915 7.21404C25.8915 7.21404 24.2132 7.33954 23.9226 6.97112C23.8168 6.837 23.7467 6.73265 23.6867 6.64333L23.6867 6.64331C23.5818 6.48727 23.5078 6.37708 23.3282 6.23409C23.0458 6.00925 22.7123 5.91203 22.2835 5.91203C21.8338 5.91203 21.4207 6.04014 21.0443 6.29636C20.6678 6.55258 20.3697 6.9003 20.1501 7.33954C19.9305 7.77877 19.8207 8.27553 19.8207 8.8298C19.8207 9.38407 19.9723 9.82592 20.2756 10.1553C20.5789 10.4848 20.9711 10.6495 21.4521 10.6495C21.8809 10.6495 22.2757 10.5371 22.6365 10.3122C22.862 10.1717 22.9765 10.0633 23.1349 9.91322C23.2298 9.82326 23.3406 9.71832 23.5007 9.58249C23.9276 9.22017 25.515 9.34747 25.515 9.34747C25.2954 9.95403 24.9712 10.4822 24.5425 10.9318C24.1137 11.3815 23.6091 11.7319 23.0287 11.9829ZM30.3182 12.3594C30.977 12.3594 31.5914 12.2391 32.1614 11.9986C32.7314 11.758 33.2281 11.4234 33.6517 10.9946C34.0752 10.5658 34.4072 10.0665 34.6478 9.49649C34.8883 8.92653 35.0086 8.3069 35.0086 7.63759C35.0086 6.95782 34.8622 6.36172 34.5694 5.84928C34.2765 5.33684 33.8713 4.93421 33.3536 4.64138C32.8359 4.34856 32.232 4.20215 31.5418 4.20215C30.8934 4.20215 30.2868 4.3198 29.7221 4.5551C29.1574 4.79041 28.6632 5.12245 28.2397 5.55123C27.8161 5.98 27.4867 6.47937 27.2514 7.04933C27.0161 7.61929 26.8984 8.23369 26.8984 8.89255C26.8984 9.56186 27.0422 10.1553 27.3298 10.673C27.6174 11.1907 28.0174 11.6012 28.5299 11.9044C29.0423 12.2077 29.6384 12.3594 30.3182 12.3594ZM29.4355 10.1484C29.7544 10.4622 30.1388 10.619 30.5885 10.619C31.0382 10.619 31.4408 10.4936 31.7964 10.2426C32.1519 9.99157 32.4343 9.64907 32.6435 9.21506C32.8526 8.78106 32.9572 8.29215 32.9572 7.74833C32.9572 7.17315 32.7977 6.72868 32.4787 6.41494C32.1598 6.10121 31.7754 5.94434 31.3258 5.94434C30.8865 5.94434 30.4865 6.06983 30.1257 6.32082C29.7649 6.57181 29.4799 6.91431 29.2708 7.34832C29.0616 7.78232 28.957 8.27123 28.957 8.81505C28.957 9.39024 29.1165 9.8347 29.4355 10.1484ZM44.7887 13.8207C44.0973 14.9407 42.8749 15.6227 41.5586 15.6227L43.7291 12.1643L41.8409 4.39083C43.0985 4.39083 44.1893 5.25982 44.4702 6.48561L45.245 9.86557L47.3921 6.22808C48.0641 5.0895 49.2878 4.39083 50.61 4.39083L44.7887 13.8207Z" fill="#457EFF"/>
</svg>
