<svg width="9" height="16" viewBox="0 0 9 16" fill="none" xmlns="http://www.w3.org/2000/svg">
<path fill-rule="evenodd" clip-rule="evenodd" d="M1.4919 1.08707C1.3064 2.06981 0.249111 7.60555 0.0318864 8.73437C-0.185338 9.8632 0.745658 10.875 1.65971 10.875C2.57376 10.875 2.69458 10.875 3.06975 10.875C3.44492 10.875 4.00346 11.1386 3.79322 12.0983C3.58297 13.0581 3.36558 14.0454 3.15187 14.978C2.93817 15.9106 4.00915 16.2866 4.47351 15.5596C4.93787 14.8325 8.40495 9.2835 8.80392 8.53723C9.2029 7.79097 8.54939 6.63696 7.56572 6.63696C6.58206 6.63696 6.17502 6.63696 5.65905 6.63696C5.14307 6.63696 5.07066 6.26859 5.25792 5.50974C5.44519 4.75088 5.67036 3.75824 6.01854 2.30351C6.36671 0.848781 4.96367 0.0585938 4.22439 0.0585938C3.48512 0.0585938 2.69024 0.0585938 2.47109 0.0585938C2.25194 0.0585938 1.67739 0.104336 1.4919 1.08707Z" fill="#457EFF"/>
</svg>
