<svg width="18" height="18" viewBox="0 0 18 18" fill="none" xmlns="http://www.w3.org/2000/svg">
<path d="M11.9348 1.67032C11.0275 1.30672 10.0371 1.10669 8.99994 1.10669C4.64062 1.10669 1.10669 4.64062 1.10669 8.99994C1.10669 13.3593 4.64062 16.8932 8.99994 16.8932C10.4576 16.8932 11.8231 16.4981 12.9949 15.809L16.2936 16.2858L15.9715 12.7048C16.5598 11.6 16.8932 10.3389 16.8932 8.99994C16.8932 8.05549 16.7273 7.14977 16.4231 6.31034" stroke="#5E6A86" stroke-width="1.5"/>
<ellipse cx="14.7704" cy="3.5337" rx="2.12285" ry="2.15297" fill="#5E6A86"/>
<path d="M6.76868 6.77253C6.76868 6.32892 6.97427 5.90348 7.34023 5.5898C7.70619 5.27612 8.2872 5.0845 9.06054 5.08875C9.83387 5.09299 10.2915 5.27612 10.6575 5.5898C11.0234 5.90348 11.229 6.32892 11.229 6.77253C11.2496 7.13452 11.1519 7.49338 10.9508 7.79505C10.7497 8.09673 10.456 8.32489 10.1139 8.44516C9.7719 8.60553 9.4782 8.90974 9.27709 9.31197C9.07597 9.71421 8.97832 10.1927 8.99885 10.6753M8.99885 12.9055V12.9111" stroke="#5E6A86" stroke-width="1.5" stroke-linecap="round" stroke-linejoin="round"/>
</svg>
