<svg width="20" height="19" viewBox="0 0 20 19" fill="none" xmlns="http://www.w3.org/2000/svg">
<path d="M1.62109 6.7419V2.0361C1.62109 1.48382 2.06881 1.0361 2.62109 1.0361H6.65109M12.7874 17.5622H17.1472C17.6995 17.5622 18.1472 17.1145 18.1472 16.5622V11.8555" stroke="#457EFF" stroke-linecap="round"/>
<path d="M11.248 13.1949L7.56722 16.8757C6.11481 18.3281 3.75999 18.3281 2.30757 16.8757C0.855158 15.4233 0.855158 13.0684 2.30757 11.616L5.98831 7.93529M13.7497 10.6932L17.4606 6.98226C18.9131 5.52985 18.9131 3.17502 17.4606 1.72261C16.0082 0.270198 13.6534 0.270197 12.201 1.72261L8.49005 5.43355" stroke="#457EFF" stroke-linecap="round"/>
<path d="M8.18414 10.9991L12.1161 7.06718" stroke="#457EFF" stroke-linecap="round"/>
</svg>
