<svg fill="none" height="21" viewBox="0 0 20 21" width="20" xmlns="http://www.w3.org/2000/svg"><circle cx="10" cy="10.2378" fill="#96a2be" r="10"/><path clip-rule="evenodd" d="m10.099 5.18397c-1.26691-.02484-2.49697.4271-3.44647 1.26628-.94951.83918-1.54917 2.00439-1.68021 3.26479-.13104 1.26036.21611 2.52406.97268 3.54056.75656 1.0166 1.86736 1.7119 3.11232 1.9482.97308.1847 1.97268.0785 2.87688-.296l-3.111-4.2779v1.5425c0 .419-.33964.7587-.75861.7587s-.75861-.3397-.75861-.7587v-3.87553c0-.32858.21154-.61982.52403-.72143.31248-.10161.65485.00951.84811.27526l5.00268 6.8791c.124.1705.1715.3849.131.5918-.0404.2069-.1651.3876-.3442.4988-1.3996.8693-3.0746 1.1813-4.69322.874-1.61865-.3072-3.06286-1.2112-4.04652-2.5329-.98365-1.3217-1.435-2.9646-1.26463-4.60336.17037-1.63872.95003-3.15367 2.18453-4.24474 1.23451-1.09107 2.83379-1.67866 4.48104-1.64636 1.6472.03229 3.2222.68211 4.413 1.82073 1.1908 1.13861 1.9105 2.68296 2.0165 4.3271.106 1.64413-.4094 3.26813-1.4441 4.55023-.2631.326-.7407.377-1.0667.1139-.3261-.2631-.3771-.7407-.114-1.0667.7959-.9862 1.1923-2.2352 1.1107-3.4998-.0815-1.26457-.635-2.45239-1.5509-3.32814s-2.1273-1.37555-3.3943-1.40039zm1.8412 2.35429c.4189 0 .7586.33964.7586.75861v1.93783c0 .4189-.3397.7586-.7586.7586-.419 0-.7586-.3397-.7586-.7586v-1.93783c0-.41897.3396-.75861.7586-.75861z" fill="#192030" fill-rule="evenodd" opacity=".7"/></svg>